<?xml version="1.0" encoding="utf-8"?>
<!-- Generator: Adobe Illustrator 23.0.5, SVG Export Plug-In . SVG Version: 6.00 Build 0)  -->
<svg version="1.1" id="Layer_1" xmlns="http://www.w3.org/2000/svg" xmlns:xlink="http://www.w3.org/1999/xlink" x="0px" y="0px"
	 viewBox="0 0 406.6 370.4" style="enable-background:new 0 0 406.6 370.4;" xml:space="preserve">
<style type="text/css">
	.st0{fill:#BED1F9;}
	.st1{fill:#FFCD4D;}
	.st2{fill-rule:evenodd;clip-rule:evenodd;fill:#FFCD4D;}
	.st3{fill-rule:evenodd;clip-rule:evenodd;fill:#D8447C;}
	.st4{fill-rule:evenodd;clip-rule:evenodd;fill:#BED1F9;}
	.st5{fill-rule:evenodd;clip-rule:evenodd;fill:#FFFFFF;}
	.st6{fill:#D9447C;}
	.st7{fill:#2967DD;}
	.st8{fill:#FFFFFF;}
	.st9{fill:#D8447C;}
	.st10{fill:#4951EC;}
	.st11{fill:#92B5F9;}
	.st12{fill:#C3C3C3;}
	.st13{fill-rule:evenodd;clip-rule:evenodd;fill:#C3C3C3;}
	.st14{fill-rule:evenodd;clip-rule:evenodd;fill:#808080;}
</style>
<g>
	<path class="st0" d="M97.4,66.6c0.6-11.7-12.3-17-25.5-17c-13.2,0-27.6,2.6-28.8,18.2C42.3,77.9,49.3,84,69.5,84
		c6.8,0,12.1-0.8,16.2-2.3l10.1,6.8l-5-9.5C95.3,76,97.1,71.6,97.4,66.6L97.4,66.6z"/>
	<path class="st1" d="M272.1,179.1c0.1,17.3-7.6,33-17.7,45.3c-8.7,10.6-21.9,24.4-22,41l-1.7,21.9c0,5.6,2.9,21.5-11.5,21.6
		c-4.6,0-14.2,0-20,0c-8.5,0-16.1,0-16.3-0.1c-11.9-0.8-13.1-10.8-13.1-22.9v-19.8c0-13.7-13.1-27-21.9-37.6
		c-10.1-12.3-16.2-28-16.2-45.1c0-39.4,32-71,71-71C241.9,112.6,271.9,140,272.1,179.1L272.1,179.1z"/>
	<path class="st2" d="M148.8,80.8c0.6-0.4,0.9-1.1,0.6-1.5l-18.2-26.5c-0.3-0.4-1-0.4-1.6,0l-2.2,1.5c-0.6,0.4-0.9,1.1-0.6,1.5
		l18.2,26.5c0.3,0.4,1,0.4,1.6,0L148.8,80.8L148.8,80.8z"/>
	<path class="st3" d="M237.1,66c0.9,0.3,1.8,0.1,2-0.5l14-39.4c0.2-0.6-0.3-1.3-1.2-1.6l-3.2-1.1c-0.9-0.3-1.8-0.1-2,0.5l-14,39.4
		c-0.2,0.6,0.3,1.3,1.2,1.6L237.1,66L237.1,66z"/>
	<path class="st4" d="M284.1,69c0.5,0.3,1.1,0.4,1.2,0.2L296,52.5c0.2-0.2-0.1-0.7-0.7-1.1l-1.9-1.2c-0.5-0.3-1.1-0.4-1.2-0.2
		l-10.7,16.6c-0.2,0.2,0.1,0.7,0.7,1.1L284.1,69L284.1,69z"/>
	<path class="st3" d="M350.1,144.1c0.3,0.9,1.1,1.5,1.8,1.2l50-14.8c0.7-0.2,1.1-1.1,0.9-2l-1-3.3c-0.3-0.9-1.1-1.5-1.8-1.2
		l-50,14.8c-0.7,0.2-1.1,1.1-0.9,2L350.1,144.1L350.1,144.1z"/>
	<path class="st3" d="M271.2,282.3c-0.5,0.7-0.6,1.6-0.2,1.9l28.5,20.4c0.4,0.3,1.2-0.1,1.7-0.8l1.9-2.7c0.5-0.7,0.6-1.6,0.2-1.9
		l-28.5-20.4c-0.4-0.3-1.2,0.1-1.7,0.8L271.2,282.3L271.2,282.3z"/>
	<path class="st3" d="M124.5,119.2c0.4-0.6,0.5-1.3,0.2-1.5l-21.4-14.8c-0.3-0.2-0.9,0.1-1.4,0.7l-1.6,2.3c-0.4,0.6-0.5,1.3-0.2,1.5
		l21.4,14.8c0.3,0.2,0.9-0.1,1.4-0.7L124.5,119.2L124.5,119.2z"/>
	<path class="st3" d="M208.6,210.9c0,0,3.6,1.4,6.1,8.8c2.5,7.4,0.7,14.6,5.3,15c4.7,0.4,5.2-4.8,6.1-11.6
		c0.9-6.8-0.2-14.4-0.2-14.4L208.6,210.9L208.6,210.9z"/>
	<path class="st3" d="M222.9,188c9.4-9.8,17.7-11.4,17.7-11.4s9.4,9.1,5.3,16.4c-3,5.3-8.7,7.5-8.7,7.5s1.8,6.4-4.4,11
		c-8.6,6.4-20.1-2.8-20.1-2.8S212.3,199.1,222.9,188L222.9,188z"/>
	<path class="st5" d="M241.1,177.3c0,0,5.2,2.7-1.1,13.7c-2.5,4.4-9.9,3.8-9.9,3.8s0.7,3.5-3.3,7.6c-4.3,4.4-11.6,4.2-11.6,4.2
		l-0.8-7.1c0,0,4.8,2.8,7.4-0.5c2.6-3.3,3.6-10.2,3.6-10.2s5.9,1.8,9.8-0.7C240.1,185,241.1,177.3,241.1,177.3L241.1,177.3z"/>
	<path class="st3" d="M201.1,142.4c4.6,0.1,6.8,3.5,6.8,3.5s5.9-1.8,10.6-0.3c4.1,1.3,6.7,5.6,6.7,5.6s6.6,0.5,9.2,1.8
		c5.2,2.6,5.9,8.4,5.9,8.4s7.6,1.9,6.9,9.3c-0.7,6.9-5.8,9.7-5.8,9.7s0.3,7.6-5.1,10.9c-5.1,3.1-8.8,0.1-8.8,0.1s0.8,5.7-2.7,9.7
		c-2.8,3.2-7.8,3.1-7.8,3.1s2.5,13.5-11.2,11.3c-2.5-0.4-7.7-6.6-12.3-8.3c-4.7-1.7-6.9,0.2-11.8-1c-7.7-1.9-4.8-7.8-4.8-7.8
		s-5,2.2-9-2.9c-2.5-3.3,0.7-8.6,0.7-8.6s-9.9,0.8-9.8-9.4c0.1-7.3,6-9.5,6-9.5s-2.1-6,1.8-10.1c4.2-4.5,9.6-4.1,9.6-4.1
		s-0.8-4.6,5.3-7.7c7.2-3.6,11.2,0.9,11.2,0.9S196.8,142.3,201.1,142.4L201.1,142.4z"/>
	<path class="st5" d="M199.6,162l5.3-3.9c1.7-1.3,2.6-2.8,3-4.2c0.9-2.9,0.1-5.4,0.1-5.4c0-0.1,0-0.2,0.1-0.3c0.1,0,0.2,0,0.2,0.1
		c0,0,1.2,2.6,0.5,5.8c-0.4,1.6-1.2,3.4-3,5.1c-0.7,0.7-1.7,1.6-2.7,2.5c-1.4,1.3-2.8,2.4-2.8,2.4c-0.3,0.2-0.6,0.3-1,0.2
		c0,0-2.5-0.8-4.8-1c-1-0.1-2-0.1-2.7,0.3c-0.9,0.5-1.6,1.3-2.1,2.1c-1,1.5-1.5,3-1.5,3c-0.1,0.4-0.4,0.7-0.8,0.9
		c-0.4,0.2-0.8,0.1-1.1,0c0,0-1.2-0.6-2.7-0.6c-0.8,0-1.7,0.2-2.6,0.8c-2.9,2-4.1,3.9-4.1,5.7c0,1.5,0.7,2.8,1.7,3.7
		c0.8,0.7,1.7,1.2,2.3,1.3c0.5,0,0.8,0.4,0.9,0.8c0,0,0.1,2.8,1.1,5.1c0.4,1,1.1,2,2,2.3c2,0.8,3.5,0.8,4.6,0.3c2.3-1,3-3.8,3-3.8
		c0-0.1,0.1-0.1,0.2-0.1c0.1,0,0.1,0.1,0.1,0.2c0,0-0.6,3-3,4.4c-1.2,0.7-3,0.9-5.3,0.1c-1.2-0.4-2.2-1.5-2.8-2.8
		c-0.9-1.7-1.3-3.7-1.5-4.8c-1.1-0.2-2.5-1-3.5-2.1c-1.1-1.2-1.9-2.7-2-4.6c-0.1-2.3,1.1-5.1,4.9-7.9c1.3-1,2.7-1.3,4-1.4
		c1-0.1,2,0.1,2.7,0.3c0.4-0.9,1-2,1.8-3c0.7-0.9,1.6-1.7,2.7-2.2c1-0.5,2.5-0.6,4.1-0.4C196.8,161,198.7,161.7,199.6,162L199.6,162
		z"/>
	<path class="st5" d="M192.5,185.3c0,0,0.4,2.7,2,4.8c0.7,0.9,1.7,1.6,3,2c0.7,0.1,1.3,0.1,1.9,0c0.9-0.2,1.7-0.6,2.5-1.2
		c2.5-1.9,4.1-5.2,4.1-5.2c0.1-0.1,0-0.2-0.1-0.3c-0.1-0.1-0.2,0-0.3,0.1c0,0-2,2.6-4.5,4c-1,0.6-2.1,1-3.3,0.7
		c-1.1-0.1-2.1-0.9-2.8-1.6c-1.4-1.5-2.2-3.2-2.2-3.2c0-0.1-0.1-0.2-0.2-0.1C192.5,185,192.5,185.1,192.5,185.3L192.5,185.3z"/>
	<path class="st5" d="M215.6,175.5c0,0,0.1-2.7-1.6-4.8c-0.9-1.1-2.4-2-4.6-2.3c-1.7-0.1-3.2,0.6-4.5,1.6c-2.6,2-4,5.3-4,5.3
		c-0.1,0.1,0,0.2,0.1,0.3c0.1,0.1,0.2,0,0.3-0.1c0,0,1.9-2.7,4.6-4.2c1.1-0.6,2.2-1,3.5-0.9c1.7,0,2.8,0.6,3.7,1.4
		c1.8,1.5,2.3,3.7,2.3,3.7c0,0.1,0.1,0.2,0.2,0.2C215.5,175.7,215.6,175.6,215.6,175.5L215.6,175.5z"/>
	<path class="st5" d="M229,185.9c0,0,3.5-1.8,5.9-5.7c1.3-2.2,2.2-4.9,2.1-8.3c-0.2-3.7-1.7-6.3-3.8-8c-1-0.8-2.1-1.3-3.3-1.6
		c-1.7-0.4-3.5-0.4-5.2,0.1c-3.2,0.9-5.4,2.8-6.8,5c-2.3,3.7-2.6,7.8-2.6,7.8c0,0.1,0.1,0.2,0.2,0.2c0.1,0,0.2-0.1,0.2-0.2
		c0,0,0.8-3.7,3.5-6.8c1.4-1.6,3.3-3,6-3.4c1.1-0.2,2.2-0.2,3.3,0.1c1.1,0.2,2,0.6,2.9,1.3c1.6,1.2,2.8,3.1,3.1,5.8
		c0.4,2.9-0.1,5.4-1,7.4c-1.8,3.9-4.8,6.1-4.8,6.1c-0.1,0.1-0.1,0.2-0.1,0.3C228.7,186,228.9,186,229,185.9L229,185.9z"/>
	<path class="st5" d="M201.5,175.1c0,0-0.3-2.5-2.3-4.1c-1.1-0.8-2.6-1.3-4.7-1.1c-0.7,0.1-1.3,0.2-1.8,0.4
		c-1.6,0.7-2.6,1.7-3.2,2.9c-1.3,2.7-0.5,5.9-0.5,5.9c0,0.1,0.1,0.2,0.2,0.2c0.1,0,0.2-0.1,0.2-0.3c0,0-0.1-2.9,1.4-5
		c0.8-1.1,2-2,4-2.1c1.6-0.3,2.8-0.1,3.7,0.4c2,1,2.7,2.9,2.7,2.9c0,0.1,0.1,0.2,0.2,0.2C201.4,175.3,201.5,175.2,201.5,175.1
		L201.5,175.1z"/>
	<path class="st5" d="M205.6,185.7c0,0-0.2,2.5,1.1,4.4c0.6,0.8,1.4,1.5,2.6,1.8c1.6,0.4,2.8-0.1,3.9-1.2c0.7-0.7,1.4-1.7,2-2.8
		c0.7-1.3,1.4-2.8,2.3-4.1c0.9-1.4,2.1-2.2,3.2-2.7c2.2-0.9,4.3-0.6,4.3-0.6c0.1,0,0.2,0,0.3-0.2c0-0.1,0-0.2-0.2-0.3
		c0,0-2.2-0.7-4.7,0c-1.4,0.4-2.8,1.2-4.1,2.7c-0.9,1.1-1.7,2.3-2.3,3.4c-0.7,1.2-1.3,2.4-2.1,3.2c-0.6,0.7-1.3,1.2-2.2,1
		c-1.2-0.1-2-0.7-2.5-1.5c-1-1.4-1.1-3.1-1.1-3.1c0-0.1-0.1-0.2-0.2-0.2C205.7,185.5,205.6,185.6,205.6,185.7L205.6,185.7z"/>
	<path class="st5" d="M201.3,197.4c-0.2,0.3-0.4,0.6-0.7,0.9c-0.4,0.5-0.8,1-1.3,1.4c-0.5,0.4-1,0.7-1.6,0.9
		c-1.2,0.4-2.5,0.3-2.5,0.3c-0.1,0-0.2-0.1-0.2-0.2c0-0.1,0.1-0.2,0.2-0.2c0,0,0.9-0.2,1.8-0.6c0.5-0.3,1-0.6,1.4-1.1
		c0.4-0.5,0.6-1,0.9-1.5c0.5-0.9,0.7-1.6,0.7-1.6c0.1-0.3,0.4-0.5,0.7-0.5c0,0,0.7-0.2,2.6,0.8c0.7,0.4,1.6,1,2.7,2
		c0.5,0.5,0.9,0.9,1.3,1.2c0.8,0.7,1.4,1.3,2,1.7c0.8,0.5,1.5,0.8,2.5,0.9c0.9,0.1,1.6,0.3,2.2,0.6c0.9,0.4,1.3,0.7,1.3,0.7
		c0.1,0.1,0.1,0.2,0,0.2c-0.1,0.1-0.2,0.1-0.2,0.1c0,0-0.5-0.3-1.6-0.4c-0.5,0-1,0-1.7,0c-1.3,0.1-2.2,0-3.4-0.5
		c-0.7-0.3-1.5-0.8-2.5-1.6c-0.4-0.3-0.9-0.8-1.5-1.2c-0.7-0.7-1.4-1.2-1.9-1.6C202,197.9,201.6,197.6,201.3,197.4L201.3,197.4z"/>
	<path class="st5" d="M176.5,156.1c0,0,0.4,1,0.5,2.3c0.1,0.7,0,1.4-0.3,2c-0.1,0.4-0.4,0.8-0.7,1.2c-0.3,0.4-0.6,0.8-0.8,1.3
		c-1,1.4-1.9,2.6-1.9,2.6c-0.1,0.1-0.1,0.2,0,0.2c0.1,0.1,0.2,0.1,0.2,0c0,0,0.8-0.3,1.7-1c0.5-0.3,1-0.8,1.5-1.3
		c0.3-0.3,0.5-0.5,0.7-0.8c0.4-0.5,0.6-1.1,0.8-1.6c0.2-0.8,0.2-1.6,0-2.3c-0.4-1.6-1.4-2.8-1.4-2.8c0-0.1-0.1-0.1-0.2-0.1
		C176.5,156,176.5,156.1,176.5,156.1L176.5,156.1z"/>
	<path class="st5" d="M191.6,155.9c0.1-0.2,0.1-0.5,0.2-0.8c0.2-0.7,0.6-1.6,1-2.8c0.5-1.1,1-2,1.6-2.7c1.1-1.4,2.2-2.1,2.2-2.1
		c0.1-0.1,0.2,0,0.2,0c0.1,0.1,0,0.2,0,0.2c0,0-0.8,0.9-1.6,2.4c-0.4,0.7-0.8,1.6-1,2.6l-1.2,4.5c0,0.3-0.2,0.6-0.5,0.7
		c-0.3,0.1-0.6,0.1-0.8-0.1l-3.7-2.5c-0.8-0.5-1.5-0.8-2.3-0.9c-1.4-0.2-2.5,0.2-2.5,0.2c-0.1,0-0.2,0-0.2-0.1c0-0.1,0-0.2,0.1-0.2
		c0,0,1.1-0.6,2.7-0.7c0.9,0,1.8,0.1,2.8,0.5c1,0.5,1.8,0.9,2.4,1.2C191.3,155.8,191.5,155.9,191.6,155.9L191.6,155.9z"/>
	<path class="st5" d="M213.1,156.5c0,0,0,1,0.3,2.5c0.2,0.7,0.4,1.6,0.8,2.4c0.5,1,1.1,1.8,1.8,2.4c0.5,0.5,1.1,0.8,1.7,1
		c2.4,1,4.8,0.6,4.8,0.6c0.5-0.1,0.9-0.5,0.8-1.1c-0.1-0.5-0.5-0.9-1-0.8c0,0-1.9,0.2-3.8-0.7c-0.5-0.2-0.9-0.4-1.4-0.7
		c-0.6-0.4-1.2-0.9-1.7-1.6c-0.5-0.7-0.9-1.3-1.2-1.9c-0.6-1.2-0.8-2.2-0.8-2.2c0-0.1-0.1-0.2-0.2-0.2
		C213.1,156.3,213.1,156.4,213.1,156.5L213.1,156.5z"/>
	<path class="st5" d="M166.9,171.5c0,0,0.8,0.6,1.5,1.9c0.4,0.6,0.7,1.3,0.9,2.2c0.2,0.6,0.2,1.2,0.3,1.8c0,0.6,0,1.2-0.1,1.8
		c-0.5,2.1-1.7,3.5-1.7,3.5c-0.1,0.1-0.1,0.2,0,0.2c0.1,0.1,0.2,0.1,0.2,0c0,0,0.8-0.5,1.6-1.4c0.4-0.5,0.9-1.1,1.2-1.9
		c0.3-0.7,0.5-1.5,0.5-2.3c0-0.7-0.2-1.5-0.5-2.3c-0.5-1-1-1.7-1.5-2.3c-1.1-1.2-2.2-1.6-2.2-1.6c-0.1,0-0.2,0-0.2,0.1
		C166.8,171.4,166.8,171.5,166.9,171.5L166.9,171.5z"/>
	<path class="st5" d="M224.9,152.2c0,0,0.5,0.8,0.8,2c0.1,0.6,0.2,1.3,0.2,2c0,0.5-0.1,0.9-0.3,1.3c-0.2,0.4-0.4,0.8-0.7,1.1
		c-1.1,1.1-2.5,1.6-2.5,1.6c-0.1,0-0.2,0.1-0.1,0.2c0,0.1,0.1,0.2,0.2,0.2c0,0,0.9,0,2-0.3c0.7-0.2,1.3-0.6,1.9-1.1
		c0.3-0.3,0.5-0.7,0.7-1.1c0.2-0.5,0.3-1.2,0.3-1.9c-0.1-0.9-0.4-1.7-0.7-2.3c-0.6-1.2-1.4-1.8-1.4-1.8c-0.1-0.1-0.2-0.1-0.2,0
		C224.9,152,224.9,152.1,224.9,152.2L224.9,152.2z"/>
	<path class="st5" d="M176,188c0,0,0.8,0.4,1.6,1.2c0.4,0.4,0.8,0.9,1.1,1.6c0.2,0.4,0.3,0.8,0.4,1.2c0.1,0.5,0,0.9-0.1,1.3
		c-0.4,1.5-1.4,2.7-1.4,2.7c-0.1,0.1-0.1,0.2,0,0.2c0.1,0.1,0.2,0.1,0.2,0c0,0,0.8-0.4,1.6-1.3c0.5-0.5,0.8-1.2,1-1.9
		c0.1-0.4,0.1-0.8,0.1-1.3c-0.1-0.6-0.3-1.2-0.7-1.7c-0.5-0.7-1.1-1.2-1.7-1.6c-1.1-0.7-2.1-0.8-2.1-0.8c-0.1,0-0.2,0-0.2,0.1
		C175.8,187.9,175.9,188,176,188L176,188z"/>
	<path class="st5" d="M185.1,196.9c0,0,0.7-0.6,1.8-1c0.5-0.2,1.2-0.3,1.9-0.4c0.5,0,0.9,0.1,1.2,0.2c0.4,0.1,0.8,0.4,1.1,0.6
		c1.1,1,1.7,2.5,1.7,2.5c0,0.1,0.1,0.2,0.2,0.1c0.1,0,0.2-0.1,0.1-0.2c0,0,0-1-0.4-2c-0.2-0.7-0.7-1.3-1.2-1.8
		c-0.3-0.3-0.7-0.5-1.1-0.6c-0.5-0.2-1.1-0.2-1.8-0.1c-0.8,0.2-1.6,0.5-2.1,0.9c-1.1,0.7-1.6,1.6-1.6,1.6c-0.1,0.1-0.1,0.2,0,0.2
		C185,197,185.1,197,185.1,196.9L185.1,196.9z"/>
	<path class="st5" d="M216.5,198.7c0,0-0.2-0.9-0.1-2.1c0-0.6,0.2-1.2,0.5-1.9c0.2-0.5,0.4-0.8,0.7-1.1c0.3-0.3,0.6-0.6,1-0.8
		c1.3-0.7,2.9-0.6,2.9-0.6c0.1,0,0.2,0,0.2-0.1c0-0.1,0-0.2-0.1-0.2c0,0-0.9-0.4-2-0.4c-0.7,0-1.4,0.1-2.1,0.4
		c-0.4,0.2-0.7,0.4-1,0.8c-0.4,0.4-0.7,1-0.8,1.7c-0.2,0.9-0.2,1.7-0.1,2.4c0.2,1.3,0.7,2.2,0.7,2.2c0,0.1,0.1,0.1,0.2,0.1
		C216.5,198.9,216.6,198.8,216.5,198.7L216.5,198.7z"/>
	<path class="st6" d="M98.9,233H43.9c-6.5,0-11.8-4.3-11.8-9.6v-13.7c0-5.3,5.3-9.6,11.8-9.6h55.1c6.5,0,11.8,4.3,11.8,9.6v13.7
		C110.7,228.7,105.4,233,98.9,233L98.9,233z"/>
	<polygon class="st6" points="44.4,232.3 43.5,251.6 55.8,231.9 44.4,232.3 	"/>
	<path class="st7" d="M365.6,250h-42.1c-5,0-9-4-9-9v-12.8c0-5,4-9,9-9h42.1c5,0,9,4,9,9V241C374.6,246,370.6,250,365.6,250
		L365.6,250z"/>
	<polygon class="st7" points="333.7,245.7 327.8,263.3 344.9,245.7 333.7,245.7 	"/>
	<path class="st8" d="M332.2,235.7c0,1.6-1.3,2.8-3,2.8c-1.7,0-3-1.3-3-2.8c0-1.6,1.3-2.8,3-2.8
		C330.8,232.9,332.2,234.2,332.2,235.7L332.2,235.7z"/>
	<path class="st8" d="M347.6,235.7c0,1.6-1.3,2.8-3,2.8c-1.7,0-3-1.3-3-2.8c0-1.6,1.3-2.8,3-2.8
		C346.2,232.9,347.6,234.2,347.6,235.7L347.6,235.7z"/>
	<path class="st8" d="M363,235.7c0,1.6-1.3,2.8-3,2.8c-1.7,0-3-1.3-3-2.8c0-1.6,1.3-2.8,3-2.8C361.6,232.9,363,234.2,363,235.7
		L363,235.7z"/>
	<path class="st7" d="M98.6,160.3H56.5c-5,0-9-3-9-6.7v-9.5c0-3.7,4-6.7,9-6.7h42.1c5,0,9,3,9,6.7v9.5
		C107.6,157.3,103.6,160.3,98.6,160.3L98.6,160.3z"/>
	<path class="st8" d="M65.2,149.2c0,1.6-1.3,2.8-3,2.8c-1.7,0-3-1.3-3-2.8s1.3-2.8,3-2.8C63.8,146.4,65.2,147.6,65.2,149.2
		L65.2,149.2z"/>
	<path class="st8" d="M80.6,149.2c0,1.6-1.3,2.8-3,2.8c-1.7,0-3-1.3-3-2.8s1.3-2.8,3-2.8C79.2,146.4,80.6,147.6,80.6,149.2
		L80.6,149.2z"/>
	<path class="st8" d="M96,149.2c0,1.6-1.3,2.8-3,2.8c-1.7,0-3-1.3-3-2.8s1.3-2.8,3-2.8C94.6,146.4,96,147.6,96,149.2L96,149.2z"/>
	<path class="st0" d="M28.9,155.9H5.1c-2.8,0-5.1-3-5.1-6.7v-9.5c0-3.7,2.3-6.7,5.1-6.7h23.8c2.8,0,5.1,3,5.1,6.7v9.5
		C34,153,31.7,155.9,28.9,155.9L28.9,155.9z"/>
	<path class="st0" d="M158.8,35.1h49.5c5.9,0,10.6-4.6,10.6-10.2V10.2c0-5.7-4.7-10.2-10.6-10.2h-49.5c-5.9,0-10.6,4.6-10.6,10.2
		v14.6C148.2,30.5,152.9,35.1,158.8,35.1L158.8,35.1z"/>
	<polygon class="st0" points="196.3,30.2 203.2,50.2 183.2,30.2 196.3,30.2 	"/>
	<path class="st8" d="M198.1,18.9c0,1.8,1.6,3.2,3.5,3.2c2,0,3.5-1.4,3.5-3.2c0-1.8-1.6-3.2-3.5-3.2
		C199.7,15.7,198.1,17.1,198.1,18.9L198.1,18.9z"/>
	<path class="st8" d="M180,18.9c0,1.8,1.6,3.2,3.5,3.2s3.5-1.4,3.5-3.2c0-1.8-1.6-3.2-3.5-3.2S180,17.1,180,18.9L180,18.9z"/>
	<path class="st8" d="M161.9,18.9c0,1.8,1.6,3.2,3.5,3.2c2,0,3.5-1.4,3.5-3.2c0-1.8-1.6-3.2-3.5-3.2
		C163.5,15.7,161.9,17.1,161.9,18.9L161.9,18.9z"/>
	<path class="st7" d="M114.9,39.7l-2-4.7l-5-1c-0.6-0.1-0.8-0.8-0.3-1.2l3.9-3.3l-0.6-5.1c-0.1-0.6,0.6-1,1.1-0.7l4.4,2.6l4.7-2.1
		c0.5-0.2,1.1,0.2,1,0.8l-1.2,5l3.4,3.8c0.4,0.4,0.1,1.1-0.5,1.2l-5.1,0.4l-2.5,4.4C115.8,40.3,115.1,40.2,114.9,39.7L114.9,39.7z"
		/>
	<path class="st9" d="M393.7,199.4l-2.7-6.4l-6.8-1.4c-0.8-0.2-1-1.1-0.4-1.6l5.2-4.5l-0.8-6.9c-0.1-0.8,0.8-1.3,1.4-0.9l5.9,3.6
		l6.3-2.9c0.7-0.3,1.5,0.3,1.3,1.1l-1.6,6.7l4.7,5.1c0.5,0.6,0.2,1.5-0.6,1.6l-6.9,0.6l-3.4,6C395,200.2,394,200.2,393.7,199.4
		L393.7,199.4z"/>
	<path class="st1" d="M20.7,137.8l1.6,3.6l3.9,0.7c0.4,0.1,0.6,0.6,0.3,0.9l-3,2.6l0.5,3.9c0.1,0.4-0.4,0.8-0.8,0.5l-3.4-2l-3.6,1.7
		c-0.4,0.2-0.9-0.2-0.8-0.6l0.8-3.9l-2.7-2.9c-0.3-0.3-0.1-0.9,0.3-0.9l3.9-0.4l1.9-3.5C20,137.4,20.5,137.4,20.7,137.8L20.7,137.8z
		"/>
	<polygon class="st1" points="120.2,265.9 117.5,278.2 99.9,275.5 94.1,292.9 80.7,293.3 80.9,301.2 98.9,300.6 104.4,284.1 
		122.7,286.9 126.6,268.4 120.2,265.9 	"/>
	<polygon class="st7" points="355,172 349.6,181 334.6,174 325.1,186.2 313,182.8 311.3,189.1 327.5,193.6 336.4,182 352,189.3 
		360.1,175.8 355,172 	"/>
	<polygon class="st1" points="281,6 284.6,12 273.3,17.8 277.2,27.1 269.7,32.6 273.1,35.7 283.1,28.4 279.5,19.6 291.1,13.5 
		285.8,4.5 281,6 	"/>
	<polygon class="st10" points="362.6,292.4 346.9,296.4 343.5,278.6 348.7,277.7 351.1,290.3 361.2,287.7 362.6,292.4 	"/>
	<path class="st7" d="M342.8,124.5l-46.5,0.1c-3.6,0-6.6-2.7-6.6-6l59.6-0.2C349.3,121.7,346.4,124.4,342.8,124.5L342.8,124.5z"/>
	<path class="st11" d="M341.4,107.6c-3.4,0.8-6.7-0.3-7.2-2.4c-0.5-2.2,1.9-4.7,5.2-5.5c3.4-0.8,6.7,0.3,7.2,2.4
		C347.2,104.3,344.8,106.8,341.4,107.6L341.4,107.6z M338.6,96.4c-5.3,1.3-8.9,5.7-7.9,9.6c1,4,6.2,6.1,11.5,4.8
		c5.3-1.3,8.9-5.7,7.9-9.6C349.1,97.3,343.9,95.1,338.6,96.4L338.6,96.4z"/>
	<path class="st0" d="M342.5,91c0.1,17.3-10.7,31.3-24,31.3c-13.3,0-24.1-13.9-24.2-31.2c0-2.2,10.8-4,24.1-4
		C331.7,87.1,342.5,88.9,342.5,91L342.5,91z"/>
	<path class="st7" d="M342.5,91c0,2.2-10.8,4-24.1,4c-13.3,0-24.1-1.7-24.1-3.9c0-2.2,10.8-4,24.1-4C331.7,87.1,342.5,88.9,342.5,91
		L342.5,91z"/>
	<path class="st8" d="M189.2,311.1c0,0-9.7-67.3-11.5-79.3c-0.1-0.5,0.1-1,0.4-1.3c0.3-0.4,0.7-0.6,1.2-0.7c0.1,0,0.2,0,0.3,0
		c0.9-0.1,1.8,0.6,2,1.5c1.7,11.6,11.7,78.8,11.7,78.8L189.2,311.1L189.2,311.1z"/>
	<path class="st8" d="M210.1,311.1l-3.8-0.2c0,0,10.6-66.2,12.6-78.5c0.2-1.1,1.2-1.8,2.2-1.7l0,0c0.5,0.1,1,0.4,1.3,0.8
		c0.3,0.4,0.4,1,0.4,1.5C220.8,245.5,210.1,311.1,210.1,311.1L210.1,311.1z"/>
	<path class="st8" d="M190.1,235.6c-1.4,1.3-2.3,3.3-2.5,5c-0.2,1.5,0.2,2.7,0.8,2.9c1,0.4,1.8,0.2,2.3-0.7
		C191.6,241.2,191.3,238.1,190.1,235.6L190.1,235.6z M200.4,238.4c-0.8,1-1.4,2-1.7,3c-0.6,1.9-0.4,4.1,1.4,4.2
		c3.3,0.1,2.3-3.2,1.2-5.6C201,239.5,200.7,238.9,200.4,238.4L200.4,238.4z M212.3,238.6c-0.8,1.2-2.6,2.9-2.9,4.7
		c-0.3,2.3,0.9,2.9,1.1,3c1.6,0.7,2.6-0.1,3-1.5C213.8,243.2,213.3,240.8,212.3,238.6L212.3,238.6z M211.5,247.3
		c-0.3,0-2.7-0.1-3-2.8c-0.2-2.1,1.5-4,3.4-6.8c-1-1.8-2.3-3.3-3.6-3.8c-2-0.7-5.1,1.3-7.3,3.8c0.4,0.6,0.7,1.2,1.1,1.8
		c1.1,2.2,2.3,7.1-2.1,6.6c-2.2-0.2-2.8-2.7-2-5c0.4-1.2,1.1-2.4,1.9-3.5c-1.7-2.3-3.9-4.1-6.1-3.8c-1.2,0.2-2.2,0.6-3,1.2
		c1.4,2.8,1.7,6.3,0.7,8.2c-0.7,1.3-1.8,1.7-3.3,1.1c-1-0.4-1.6-1.9-1.4-3.9c0.2-2,1.2-4.2,2.9-5.7c-0.4-0.7-1-1.4-1.6-1.9
		c-3.8-3.1-6.3,1.8-6.4,2l-0.6-0.6c0,0,3.2-5.7,7.5-2c0.7,0.5,1.2,1.2,1.7,2c0.9-0.7,2.1-1.1,3.4-1.3c2.5-0.3,4.9,1.5,6.7,4
		c2.4-2.7,5.7-4.7,8.1-3.9c1.5,0.5,2.9,2,3.9,3.8c0.6-0.8,1.4-1.9,2.2-2.4c2.5-1.4,5-1.2,5-1.2l0,1c0,0-2.6-0.8-4.9,1.1
		c-0.7,0.6-1.2,1.4-1.8,2.2c1.2,2.5,1.9,5.4,1.4,7.3C214,245.9,213.3,247.3,211.5,247.3L211.5,247.3z"/>
	<path class="st5" d="M160.2,140.4c5.2-3,10.7-3,12.4-0.1c1.7,2.9-1.1,7.7-6.3,10.7c-5.2,3-10.7,3-12.4,0.1
		C152.2,148.2,155,143.4,160.2,140.4L160.2,140.4z"/>
	<path class="st12" d="M219.1,321.4c-0.2,2.2-3.1,38.2-3.1,38.6c-0.5,5.9-4.7,10.5-9.8,10.5h-11.4c-5,0-9.2-4.5-9.8-10.4
		c-0.6-6.2-2.7-30.1-3.4-38.7H219.1L219.1,321.4z"/>
	<path class="st3" d="M232.3,300.3c0-1.4-1.1-2.6-2.6-2.6c-10.3,0-48.5,0-58.8,0c-1.4,0-2.6,1.1-2.6,2.6c0,6.5,0,24,0,37.1
		c0,4.2,1.7,8.2,4.6,11.2c3,3,7,4.6,11.2,4.6c9.8,0,22.4,0,32.2,0c4.2,0,8.2-1.7,11.2-4.6c3-3,4.6-7,4.6-11.2
		C232.3,324.2,232.3,306.7,232.3,300.3L232.3,300.3z"/>
	<path class="st13" d="M236.3,308.4c0-1.7-1.3-3-3-3h-66c-1.7,0-3,1.3-3,3c0,1.7,1.3,3,3,3h66C235,311.4,236.3,310.1,236.3,308.4
		L236.3,308.4z"/>
	<path class="st14" d="M236.3,319.7c0-1.7-1.3-3-3-3h-66c-1.7,0-3,1.3-3,3c0,1.7,1.3,3,3,3h66C235,322.7,236.3,321.4,236.3,319.7
		L236.3,319.7z"/>
	<path class="st14" d="M236.3,319.7c0-1.7-1.3-3-3-3h-66c-1.7,0-3,1.3-3,3c0,1.7,1.3,3,3,3h66C235,322.7,236.3,321.4,236.3,319.7
		L236.3,319.7z"/>
	<path class="st13" d="M236.3,319.7c0-1.7-1.3-3-3-3h-66c-1.7,0-3,1.3-3,3c0,1.7,1.3,3,3,3h66C235,322.7,236.3,321.4,236.3,319.7
		L236.3,319.7z"/>
	<path class="st13" d="M236.3,331.5c0-1.7-1.3-3-3-3h-66c-1.7,0-3,1.3-3,3c0,1.7,1.3,3,3,3h66C235,334.5,236.3,333.1,236.3,331.5
		L236.3,331.5z"/>
	<path class="st13" d="M233.3,343.2c0-1.7-1.3-3-3-3h-60c-1.7,0-3,1.3-3,3c0,1.7,1.3,3,3,3h60C232,346.3,233.3,344.9,233.3,343.2
		L233.3,343.2z"/>
	<path class="st2" d="M331.5,80.1c0,0,10.5-9.8,6.5-19.5c-2.1-5-3.8-7.9-3.6-13.4c0.1-5.2,4.6-9.4,10.3-9.4s9.7,4.2,10.3,9.4
		c0.6,5.3-0.2,9.4-2.3,14C346.8,74.1,331.5,80.1,331.5,80.1L331.5,80.1z"/>
</g>
</svg>
