<svg xmlns="http://www.w3.org/2000/svg" viewBox="0 0 360 260" role="img" aria-label="Coffee cup stain">
  <defs>
    <filter id="soft-blur" x="-22%" y="-26%" width="144%" height="152%">
      <feGaussianBlur stdDeviation="2.8" />
    </filter>
    <filter id="paper-bleed" x="-22%" y="-26%" width="144%" height="152%">
      <feTurbulence type="fractalNoise" baseFrequency="0.038 0.074" numOctaves="3" seed="12" />
      <feDisplacementMap in="SourceGraphic" scale="5.4" />
    </filter>
  </defs>
  <g fill="none" stroke-linecap="round" stroke-linejoin="round">
    <path
      d="M72 138C69 83 121 38 195 42C266 46 322 83 324 137C326 193 265 225 191 224C119 223 75 190 72 138Z"
      fill="#9b6331"
      opacity="0.052"
      stroke="none"
      filter="url(#soft-blur)"
    />
    <g filter="url(#paper-bleed)">
      <path
        d="M78 139C74 84 124 41 196 43C269 45 323 83 324 139C325 191 267 224 192 222C118 220 76 190 78 139"
        stroke="#74411f"
        stroke-opacity="0.33"
        stroke-width="8.8"
        stroke-dasharray="184 24 54 13 72 30 112 18"
      />
      <path
        d="M93 137C93 93 134 58 197 58C260 58 306 91 308 137C310 181 257 209 194 209C134 209 92 178 93 137"
        stroke="#9d6537"
        stroke-opacity="0.24"
        stroke-width="4.8"
        stroke-dasharray="126 26 76 18 54 28 64 22"
      />
      <path
        d="M111 136C112 105 148 78 198 76C249 74 286 101 288 136C290 170 248 195 196 195C146 195 110 168 111 136"
        stroke="#6f3f1b"
        stroke-opacity="0.13"
        stroke-width="2.7"
        stroke-dasharray="58 42 98 28 76 34"
      />
      <path
        d="M86 154C103 205 171 227 236 210C270 201 297 182 310 157"
        stroke="#8b5529"
        stroke-opacity="0.11"
        stroke-width="6.2"
        stroke-dasharray="86 22 28 18 66 32"
      />
    </g>
  </g>
  <g fill="#74411f" filter="url(#soft-blur)">
    <ellipse cx="121" cy="48" rx="10" ry="18" opacity="0.09" transform="rotate(32 121 48)" />
    <ellipse cx="214" cy="38" rx="14" ry="8" opacity="0.14" transform="rotate(-12 214 38)" />
    <ellipse cx="285" cy="58" rx="18" ry="7" opacity="0.1" transform="rotate(24 285 58)" />
    <ellipse cx="328" cy="124" rx="17" ry="6" opacity="0.13" transform="rotate(-6 328 124)" />
    <ellipse cx="296" cy="215" rx="14" ry="7" opacity="0.08" transform="rotate(-20 296 215)" />
    <ellipse cx="82" cy="192" rx="8" ry="15" opacity="0.09" transform="rotate(-34 82 192)" />
  </g>
  <g fill="#865127">
    <circle cx="111" cy="52" r="2.1" opacity="0.15" />
    <circle cx="222" cy="30" r="3.6" opacity="0.2" />
    <circle cx="237" cy="41" r="2.4" opacity="0.15" />
    <circle cx="315" cy="80" r="2.8" opacity="0.14" />
    <circle cx="331" cy="143" r="3.2" opacity="0.16" />
    <circle cx="309" cy="171" r="1.9" opacity="0.12" />
    <circle cx="242" cy="223" r="2.4" opacity="0.11" />
    <circle cx="94" cy="201" r="2" opacity="0.12" />
  </g>
</svg>
