<svg xmlns="http://www.w3.org/2000/svg" viewBox="0 0 380 380" role="img" aria-label="Organic circular coffee stain with droplets">
  <defs>
    <filter id="bleed" x="-20%" y="-20%" width="140%" height="140%">
      <feTurbulence type="fractalNoise" baseFrequency="0.031 0.058" numOctaves="5" seed="21" />
      <feDisplacementMap in="SourceGraphic" scale="8.8" />
    </filter>
    <filter id="soft" x="-24%" y="-24%" width="148%" height="148%">
      <feGaussianBlur stdDeviation="3.1" />
    </filter>
    <filter id="tiny-bleed" x="-42%" y="-42%" width="184%" height="184%">
      <feGaussianBlur stdDeviation="1.25" />
      <feTurbulence type="fractalNoise" baseFrequency="0.12 0.18" numOctaves="2" seed="13" />
      <feDisplacementMap in="SourceGraphic" scale="2.5" />
    </filter>
  </defs>
  <g transform="translate(6 -24) scale(1.02)">
    <path
      d="M55 184C53 111 110 54 190 59C269 64 326 110 331 181C336 258 278 323 194 316C116 310 61 263 55 184Z"
      fill="#9c632e"
      opacity="0.072"
      filter="url(#soft)"
    />
    <path
      d="M84 223C112 281 194 310 264 268C303 244 319 209 316 166C302 215 268 252 215 262C158 273 111 256 84 223Z"
      fill="#6b3a1a"
      opacity="0.078"
      filter="url(#bleed)"
    />
    <path d="M102 121C140 80 212 72 273 106C236 94 184 97 145 124C122 140 104 143 102 121Z" fill="#aa7040" opacity="0.04" filter="url(#soft)" />
    <g fill="none" stroke-linecap="round" stroke-linejoin="round" filter="url(#bleed)">
      <path
        d="M61 186C59 113 116 61 190 67C265 73 317 111 318 184C319 260 265 304 190 309C111 314 65 260 61 186Z"
        stroke="#6b3a1a"
        stroke-opacity="0.37"
        stroke-width="12.6"
        stroke-dasharray="40 18 16 21 96 26 22 16 64 30 11 24 58 17 28 34"
        stroke-dashoffset="3"
      />
      <path
        d="M92 184C96 127 137 88 195 89C252 90 289 129 287 188C285 244 246 281 187 279C130 277 89 244 92 184Z"
        stroke="#aa7040"
        stroke-opacity="0.26"
        stroke-width="6.4"
        stroke-dasharray="22 33 76 16 17 37 42 24 13 18 50 35"
        stroke-dashoffset="29"
      />
      <path
        d="M122 192C122 151 151 124 190 124C234 124 263 151 264 187C265 229 232 255 189 255C148 255 122 232 122 192Z"
        stroke="#70401c"
        stroke-opacity="0.17"
        stroke-width="3.8"
        stroke-dasharray="30 31 48 24 18 29 54 34"
      />
      <path
        d="M72 212C97 282 185 322 260 276C294 255 312 225 319 186"
        stroke="#84502a"
        stroke-opacity="0.17"
        stroke-width="8"
        stroke-dasharray="29 16 68 20 23 18 44 25"
      />
    </g>
    <g fill="#77431e" filter="url(#soft)">
      <ellipse cx="81" cy="141" rx="11" ry="21" opacity="0.09" transform="rotate(-26 81 141)" />
      <ellipse cx="136" cy="70" rx="24" ry="9" opacity="0.105" transform="rotate(-13 136 70)" />
      <ellipse cx="268" cy="80" rx="30" ry="8" opacity="0.11" transform="rotate(17 268 80)" />
      <ellipse cx="323" cy="180" rx="20" ry="8" opacity="0.14" transform="rotate(-9 323 180)" />
      <ellipse cx="258" cy="309" rx="24" ry="8" opacity="0.09" transform="rotate(-18 258 309)" />
    </g>
    <g fill="#854b23" filter="url(#tiny-bleed)">
      <ellipse cx="84" cy="108" rx="7.4" ry="5.2" opacity="0.34" transform="rotate(-12 84 108)" />
      <circle cx="318" cy="92" r="6.8" opacity="0.4" />
      <ellipse cx="350" cy="172" rx="10.8" ry="6" opacity="0.42" transform="rotate(-18 350 172)" />
      <ellipse cx="338" cy="235" rx="5.4" ry="8.8" opacity="0.31" transform="rotate(27 338 235)" />
      <ellipse cx="108" cy="300" rx="5.8" ry="8.4" opacity="0.28" transform="rotate(18 108 300)" />
    </g>
  </g>
</svg>
