<svg xmlns="http://www.w3.org/2000/svg" viewBox="0 0 420 300" role="img" aria-label="Irregular coffee stain">
  <defs>
    <filter id="bleed" x="-18%" y="-22%" width="136%" height="144%">
      <feTurbulence type="fractalNoise" baseFrequency="0.03 0.073" numOctaves="4" seed="21" />
      <feDisplacementMap in="SourceGraphic" scale="8.4" />
    </filter>
    <filter id="soft" x="-22%" y="-28%" width="144%" height="156%">
      <feGaussianBlur stdDeviation="2.9" />
    </filter>
    <filter id="tiny-bleed" x="-40%" y="-40%" width="180%" height="180%">
      <feGaussianBlur stdDeviation="1.2" />
      <feTurbulence type="fractalNoise" baseFrequency="0.11 0.18" numOctaves="2" seed="13" />
      <feDisplacementMap in="SourceGraphic" scale="2.2" />
    </filter>
  </defs>
  <path
    d="M58 157C49 101 93 55 161 43C239 29 321 57 359 106C391 147 373 199 317 230C254 265 167 252 104 222C76 208 63 184 58 157Z"
    fill="#9c632e"
    opacity="0.086"
    filter="url(#soft)"
  />
  <g fill="none" stroke-linecap="round" stroke-linejoin="round" filter="url(#bleed)">
    <path
      d="M65 153C55 101 96 61 164 50C232 39 306 60 347 101C388 142 375 196 319 226C258 258 171 248 111 220C82 207 70 184 65 153Z"
      stroke="#6b3a1a"
      stroke-opacity="0.37"
      stroke-width="11.2"
      stroke-dasharray="72 18 29 16 118 22 44 30 86 18 31 24"
      stroke-dashoffset="3"
    />
    <path
      d="M89 152C82 112 114 80 169 70C229 59 291 76 324 108C357 141 345 182 300 205C251 229 180 223 132 203C102 190 94 174 89 152Z"
      stroke="#9b6335"
      stroke-opacity="0.25"
      stroke-width="5.8"
      stroke-dasharray="46 28 96 18 34 26 69 24 31 20"
      stroke-dashoffset="31"
    />
    <path
      d="M115 160C118 124 150 100 201 94C254 87 296 104 308 135C320 167 286 192 234 199C181 207 128 191 115 160Z"
      stroke="#6b3919"
      stroke-opacity="0.16"
      stroke-width="3.3"
      stroke-dasharray="38 32 62 24 21 28 74 30"
    />
    <path
      d="M77 178C105 227 182 245 258 226C299 216 333 194 352 160"
      stroke="#8a5227"
      stroke-opacity="0.16"
      stroke-width="7"
      stroke-dasharray="38 16 86 22 26 18 54 28"
    />
  </g>
  <g fill="#79441f" filter="url(#soft)">
    <ellipse cx="72" cy="111" rx="12" ry="22" opacity="0.09" transform="rotate(-28 72 111)" />
    <ellipse cx="132" cy="43" rx="19" ry="8" opacity="0.1" transform="rotate(-17 132 43)" />
    <ellipse cx="290" cy="55" rx="28" ry="9" opacity="0.11" transform="rotate(15 290 55)" />
    <ellipse cx="363" cy="129" rx="17" ry="9" opacity="0.12" transform="rotate(-9 363 129)" />
    <ellipse cx="315" cy="244" rx="20" ry="8" opacity="0.085" transform="rotate(-22 315 244)" />
  </g>
  <g fill="#855027" filter="url(#tiny-bleed)">
    <circle cx="92" cy="71" r="3.4" opacity="0.19" />
    <circle cx="116" cy="54" r="1.9" opacity="0.16" />
    <ellipse cx="203" cy="38" rx="4.8" ry="2.6" opacity="0.17" transform="rotate(8 203 38)" />
    <circle cx="337" cy="78" r="3.1" opacity="0.16" />
    <ellipse cx="376" cy="155" rx="5.2" ry="3.2" opacity="0.17" transform="rotate(-18 376 155)" />
    <circle cx="343" cy="203" r="2.3" opacity="0.13" />
    <ellipse cx="272" cy="258" rx="6.8" ry="2.5" opacity="0.12" transform="rotate(-14 272 258)" />
    <circle cx="93" cy="232" r="2.4" opacity="0.13" />
    <ellipse cx="54" cy="174" rx="3.2" ry="6.4" opacity="0.13" transform="rotate(18 54 174)" />
  </g>
</svg>
