<svg xmlns="http://www.w3.org/2000/svg" viewBox="0 0 360 360" role="img" aria-label="Organic circular coffee stain">
  <defs>
    <filter id="bleed" x="-18%" y="-18%" width="136%" height="136%">
      <feTurbulence type="fractalNoise" baseFrequency="0.034 0.052" numOctaves="4" seed="37" />
      <feDisplacementMap in="SourceGraphic" scale="7.4" />
    </filter>
    <filter id="soft" x="-22%" y="-22%" width="144%" height="144%">
      <feGaussianBlur stdDeviation="2.8" />
    </filter>
    <filter id="tiny-bleed" x="-40%" y="-40%" width="180%" height="180%">
      <feGaussianBlur stdDeviation="1.15" />
      <feTurbulence type="fractalNoise" baseFrequency="0.12 0.16" numOctaves="2" seed="9" />
      <feDisplacementMap in="SourceGraphic" scale="2" />
    </filter>
  </defs>
  <path
    d="M62 178C62 102 112 58 184 58C258 58 303 108 304 181C305 254 257 302 181 301C106 300 62 251 62 178Z"
    fill="#8d5729"
    opacity="0.082"
    filter="url(#soft)"
  />
  <path
    d="M86 207C113 257 184 280 246 248C283 229 299 196 297 164C286 202 259 231 216 242C164 255 116 241 86 207Z"
    fill="#613216"
    opacity="0.068"
    filter="url(#bleed)"
  />
  <path d="M111 105C143 75 207 69 259 101C224 91 178 95 145 116C126 128 112 126 111 105Z" fill="#a46b39" opacity="0.038" filter="url(#soft)" />
  <g fill="none" stroke-linecap="round" stroke-linejoin="round" filter="url(#bleed)">
    <path
      d="M70 178C68 111 115 67 183 66C254 65 296 111 297 180C298 251 252 293 181 292C111 291 72 247 70 178Z"
      stroke="#613216"
      stroke-opacity="0.36"
      stroke-width="11.2"
      stroke-dasharray="68 18 31 17 96 21 46 28 72 18 34 24"
      stroke-dashoffset="11"
    />
    <path
      d="M91 179C90 123 130 89 184 88C241 87 276 124 277 180C278 236 239 271 182 271C127 271 92 235 91 179Z"
      stroke="#a46b39"
      stroke-opacity="0.25"
      stroke-width="5.8"
      stroke-dasharray="44 26 86 18 36 24 58 23 30 20"
      stroke-dashoffset="37"
    />
    <path
      d="M119 184C120 145 146 121 185 120C226 119 253 145 254 181C255 219 225 243 184 243C144 243 118 221 119 184Z"
      stroke="#6a3919"
      stroke-opacity="0.16"
      stroke-width="3.3"
      stroke-dasharray="36 30 54 24 22 28 62 30"
    />
    <path
      d="M80 202C104 261 181 292 247 255C279 237 294 212 300 177"
      stroke="#7c451e"
      stroke-opacity="0.16"
      stroke-width="7"
      stroke-dasharray="36 16 72 22 28 18 48 28"
    />
  </g>
  <g fill="#73411f" filter="url(#soft)">
    <ellipse cx="82" cy="136" rx="10" ry="18" opacity="0.08" transform="rotate(-23 82 136)" />
    <ellipse cx="130" cy="75" rx="18" ry="8" opacity="0.1" transform="rotate(-12 130 75)" />
    <ellipse cx="254" cy="83" rx="24" ry="8" opacity="0.11" transform="rotate(14 254 83)" />
    <ellipse cx="302" cy="173" rx="16" ry="8" opacity="0.12" transform="rotate(-7 302 173)" />
    <ellipse cx="251" cy="287" rx="18" ry="7" opacity="0.08" transform="rotate(-18 251 287)" />
  </g>
  <g fill="#7b4622" filter="url(#tiny-bleed)">
    <circle cx="101" cy="98" r="3.4" opacity="0.19" />
    <circle cx="123" cy="80" r="1.9" opacity="0.16" />
    <ellipse cx="194" cy="66" rx="4.8" ry="2.6" opacity="0.17" transform="rotate(8 194 66)" />
    <circle cx="282" cy="111" r="3.1" opacity="0.16" />
    <ellipse cx="313" cy="198" rx="5.2" ry="3.2" opacity="0.17" transform="rotate(-18 313 198)" />
    <circle cx="292" cy="236" r="2.3" opacity="0.13" />
    <ellipse cx="213" cy="306" rx="6.8" ry="2.5" opacity="0.12" transform="rotate(-14 213 306)" />
    <circle cx="101" cy="272" r="2.4" opacity="0.13" />
    <ellipse cx="60" cy="204" rx="3.2" ry="6.4" opacity="0.13" transform="rotate(18 60 204)" />
  </g>
</svg>
