<svg xmlns="http://www.w3.org/2000/svg" viewBox="0 0 360 260" role="img" aria-label="Coffee cup stain">
  <defs>
    <filter id="soft-blur" x="-24%" y="-30%" width="148%" height="160%">
      <feGaussianBlur stdDeviation="2.65" />
    </filter>
    <filter id="paper-bleed" x="-24%" y="-30%" width="148%" height="160%">
      <feTurbulence type="fractalNoise" baseFrequency="0.032 0.088" numOctaves="4" seed="24" />
      <feDisplacementMap in="SourceGraphic" scale="6.5" />
    </filter>
  </defs>
  <path
    d="M47 134C43 73 105 34 188 36C273 38 331 79 333 136C335 198 270 231 186 228C101 225 49 193 47 134Z"
    fill="#a76830"
    opacity="0.066"
    filter="url(#soft-blur)"
  />
  <g fill="none" stroke-linecap="round" stroke-linejoin="round" filter="url(#paper-bleed)">
    <path
      d="M55 132C53 72 111 38 188 39C270 40 325 80 326 135C327 192 267 225 187 223C106 221 57 190 55 132Z"
      stroke="#7c451e"
      stroke-opacity="0.33"
      stroke-width="9.6"
      stroke-dasharray="150 18 40 14 88 16 54 28 118 18"
    />
    <path
      d="M72 135C70 86 123 56 191 57C258 58 306 91 307 136C308 183 255 209 190 208C123 207 74 181 72 135Z"
      stroke="#ad7540"
      stroke-opacity="0.23"
      stroke-width="5.2"
      stroke-dasharray="96 22 144 16 46 30 78 18"
    />
    <path
      d="M93 137C96 104 137 78 192 77C251 76 286 101 289 136C292 171 250 194 195 196C139 198 90 170 93 137Z"
      stroke="#74411b"
      stroke-opacity="0.13"
      stroke-width="3"
      stroke-dasharray="64 34 78 26 104 32"
    />
    <path
      d="M65 154C82 210 154 233 232 215C275 205 308 182 321 149"
      stroke="#965b2b"
      stroke-opacity="0.12"
      stroke-width="6.3"
      stroke-dasharray="80 18 32 16 74 28"
    />
  </g>
  <g fill="#7b431e" filter="url(#soft-blur)">
    <ellipse cx="86" cy="64" rx="11" ry="19" opacity="0.085" transform="rotate(29 86 64)" />
    <ellipse cx="213" cy="32" rx="15" ry="8" opacity="0.13" transform="rotate(-10 213 32)" />
    <ellipse cx="302" cy="68" rx="20" ry="7" opacity="0.1" transform="rotate(23 302 68)" />
    <ellipse cx="336" cy="132" rx="18" ry="7" opacity="0.14" transform="rotate(-5 336 132)" />
    <ellipse cx="286" cy="222" rx="15" ry="7" opacity="0.08" transform="rotate(-21 286 222)" />
    <ellipse cx="58" cy="196" rx="9" ry="16" opacity="0.09" transform="rotate(-32 58 196)" />
  </g>
  <g fill="#8b5127">
    <circle cx="82" cy="51" r="2.2" opacity="0.14" />
    <circle cx="222" cy="27" r="3.8" opacity="0.18" />
    <circle cx="246" cy="39" r="2.5" opacity="0.14" />
    <circle cx="319" cy="88" r="2.9" opacity="0.13" />
    <circle cx="338" cy="151" r="3.3" opacity="0.16" />
    <circle cx="309" cy="179" r="2" opacity="0.12" />
    <circle cx="238" cy="228" r="2.5" opacity="0.1" />
    <circle cx="67" cy="214" r="2.1" opacity="0.12" />
  </g>
</svg>
