<svg xmlns="http://www.w3.org/2000/svg" viewBox="0 0 380 380" role="img" aria-label="Organic circular coffee stain with droplets">
  <defs>
    <filter id="bleed" x="-20%" y="-20%" width="140%" height="140%">
      <feTurbulence type="fractalNoise" baseFrequency="0.03 0.059" numOctaves="5" seed="56" />
      <feDisplacementMap in="SourceGraphic" scale="8.6" />
    </filter>
    <filter id="soft" x="-24%" y="-24%" width="148%" height="148%">
      <feGaussianBlur stdDeviation="3.1" />
    </filter>
    <filter id="tiny-bleed" x="-42%" y="-42%" width="184%" height="184%">
      <feGaussianBlur stdDeviation="1.25" />
      <feTurbulence type="fractalNoise" baseFrequency="0.12 0.18" numOctaves="2" seed="25" />
      <feDisplacementMap in="SourceGraphic" scale="2.5" />
    </filter>
  </defs>
  <path
    d="M62 187C58 112 111 58 188 57C263 56 319 103 323 180C327 257 274 318 193 319C112 320 66 266 62 187Z"
    fill="#d9aa78"
    opacity="0.058"
    filter="url(#soft)"
  />
  <path
    d="M84 223C112 281 194 310 264 268C303 244 319 209 316 166C302 215 268 252 215 262C158 273 111 256 84 223Z"
    fill="#d09460"
    opacity="0.066"
    filter="url(#bleed)"
  />
  <path d="M102 121C140 80 212 72 273 106C236 94 184 97 145 124C122 140 104 143 102 121Z" fill="#e2be91" opacity="0.034" filter="url(#soft)" />
  <g fill="none" stroke-linecap="round" stroke-linejoin="round" filter="url(#bleed)">
    <path
      d="M68 188C65 116 115 66 188 64C265 62 313 112 315 184C317 259 266 307 190 308C114 309 72 262 68 188Z"
      stroke="#d09460"
      stroke-opacity="0.34"
      stroke-width="12.6"
      stroke-dasharray="54 19 23 15 88 28 31 22 76 18 34 26 52 20"
      stroke-dashoffset="13"
    />
    <path
      d="M93 187C92 128 136 88 193 87C253 86 287 128 289 184C291 244 248 282 188 282C130 282 94 247 93 187Z"
      stroke="#e2be91"
      stroke-opacity="0.24"
      stroke-width="6.4"
      stroke-dasharray="35 28 72 19 28 31 52 23 23 20 44 30"
      stroke-dashoffset="33"
    />
    <path
      d="M122 192C122 151 151 124 190 124C234 124 263 151 264 187C265 229 232 255 189 255C148 255 122 232 122 192Z"
      stroke="#f0c79a"
      stroke-opacity="0.13"
      stroke-width="3.8"
      stroke-dasharray="30 31 48 24 18 29 54 34"
    />
    <path
      d="M72 212C97 282 185 322 260 276C294 255 312 225 319 186"
      stroke="#c58b58"
      stroke-opacity="0.15"
      stroke-width="8"
      stroke-dasharray="29 16 68 20 23 18 44 25"
    />
  </g>
  <g fill="#d19b68" filter="url(#soft)">
    <ellipse cx="81" cy="141" rx="11" ry="21" opacity="0.075" transform="rotate(-26 81 141)" />
    <ellipse cx="136" cy="70" rx="24" ry="9" opacity="0.09" transform="rotate(-13 136 70)" />
    <ellipse cx="268" cy="80" rx="30" ry="8" opacity="0.09" transform="rotate(17 268 80)" />
    <ellipse cx="323" cy="180" rx="20" ry="8" opacity="0.11" transform="rotate(-9 323 180)" />
    <ellipse cx="258" cy="309" rx="24" ry="8" opacity="0.07" transform="rotate(-18 258 309)" />
  </g>
  <g fill="#dfb17f" filter="url(#tiny-bleed)">
    <ellipse cx="84" cy="108" rx="7.4" ry="5.2" opacity="0.29" transform="rotate(-12 84 108)" />
    <circle cx="130" cy="70" r="4.2" opacity="0.23" />
    <ellipse cx="214" cy="55" rx="9.2" ry="4.2" opacity="0.25" transform="rotate(9 214 55)" />
    <circle cx="318" cy="92" r="6.8" opacity="0.32" />
    <ellipse cx="350" cy="172" rx="10.8" ry="6" opacity="0.32" transform="rotate(-18 350 172)" />
    <ellipse cx="108" cy="300" rx="5.8" ry="8.4" opacity="0.21" transform="rotate(18 108 300)" />
  </g>
</svg>
