<svg xmlns="http://www.w3.org/2000/svg" width="94" height="71" viewBox="0 0 94 71">
    <g fill="none" fill-rule="evenodd">
        <path fill="#FFF" d="M-74-66H926v616H-74z"/>
        <path fill="#FFF" stroke="#EEF3F5" stroke-width="4" d="M-72-64h996v612H-72z"/>
        <g stroke="#394149">
            <g stroke-width="1.455" transform="translate(15.842 3.123)">
                <ellipse cx="59.713" cy="34.897" fill="#FFAF00" rx="2.756" ry="2.748"/>
                <ellipse cx="2.756" cy="34.897" fill="#FFAF00" rx="2.756" ry="2.748"/>
                <path fill="#FFEFCC" fill-rule="nonzero" d="M65.525 7.55c1.573 2.293 2.305 4.197 2.23 5.688-.122 2.409-1.4 4.152-2.674 4.037-1.305-.117-2.42-2.116-2.298-4.543.074-1.478.976-3.212 2.742-5.182z"/>
                <path fill="#FFDCDC" fill-rule="nonzero" d="M68.594 17.515c1.111 2.554 1.469 4.564 1.112 6.014-.575 2.34-2.16 3.805-3.387 3.448-1.26-.367-1.977-2.545-1.397-4.904.353-1.436 1.566-2.964 3.672-4.558z"/>
                <path fill="#D1EEFC" fill-rule="nonzero" d="M73.163 28.5c-.545 2.738-1.397 4.593-2.515 5.575-1.803 1.583-3.93 1.867-4.735.864-.826-1.032-.172-3.231 1.646-4.828 1.106-.971 2.97-1.522 5.604-1.61z"/>
                <path fill="#E2CAEF" fill-rule="nonzero" d="M71.612 37.898c-1.098 2.564-2.315 4.2-3.61 4.927-2.09 1.17-4.23 1.003-4.81-.148-.596-1.184.497-3.197 2.605-4.377 1.282-.719 3.22-.867 5.815-.402z"/>
                <path fill="#D0EDE7" fill-rule="nonzero" d="M59.623 55.676c-2.332 1.506-4.247 2.177-5.722 2.05-2.385-.207-4.07-1.554-3.91-2.84.163-1.314 2.183-2.365 4.583-2.158 1.463.127 3.154 1.097 5.049 2.948z"/>
                <path fill="#D4DDFA" fill-rule="nonzero" d="M51.355 61.172c-2.332 1.507-4.247 2.177-5.722 2.05-2.385-.206-4.07-1.553-3.91-2.839.163-1.314 2.183-2.365 4.583-2.158 1.463.127 3.154 1.097 5.049 2.947z"/>
                <path fill="#E2CAEF" fill-rule="nonzero" d="M41.294 66.69c-2.761.179-4.757-.17-5.985-1.002-1.988-1.345-2.814-3.35-2.056-4.396.773-1.067 3.043-1 5.042.353 1.22.826 2.232 2.501 3 5.046z"/>
                <path fill="#D4DDFA" fill-rule="nonzero" d="M53.244 11.805c.449 2.755 1.237 4.639 2.32 5.659 1.746 1.646 3.863 2.005 4.701 1.03.862-1.002.285-3.223-1.477-4.882-1.072-1.01-2.916-1.626-5.544-1.807z"/>
                <path fill="#D0EDE7" fill-rule="nonzero" d="M55.926 21.033c.065 2.79.584 4.766 1.515 5.928 1.503 1.875 3.55 2.528 4.514 1.68.991-.87.727-3.15-.789-5.042-.922-1.15-2.663-2.018-5.24-2.566z"/>
                <path fill="#FFEFCC" fill-rule="nonzero" d="M52.99 36.69c-.885 2.643-1.068 4.677-.587 6.09.776 2.281 2.48 3.6 3.672 3.137 1.225-.476 1.75-2.71.968-5.009-.476-1.399-1.817-2.815-4.052-4.217z"/>
                <path fill="#FFDCDC" fill-rule="nonzero" d="M48.682 42.401c-1.766 2.146-2.659 3.978-2.713 5.47-.087 2.41 1.036 4.26 2.315 4.258 1.31-.003 2.594-1.896 2.682-4.324.053-1.479-.695-3.286-2.284-5.404z"/>
            </g>
            <g fill-rule="nonzero" stroke-width="1.455">
                <path fill="#F9F3BB" d="M12.786 10.33c-1.574 2.292-2.305 4.196-2.23 5.687.122 2.41 1.4 4.153 2.674 4.038 1.305-.117 2.42-2.117 2.298-4.543-.074-1.478-.976-3.213-2.742-5.182z"/>
                <path fill="#FFDCDC" d="M9.717 20.295c-1.111 2.554-1.469 4.564-1.112 6.013.575 2.342 2.16 3.806 3.387 3.449 1.26-.367 1.977-2.545 1.397-4.904-.353-1.436-1.567-2.965-3.672-4.558z"/>
                <path fill="#D1EEFC" d="M5.148 31.28c.545 2.738 1.397 4.593 2.515 5.574 1.803 1.584 3.93 1.868 4.734.865.827-1.032.173-3.231-1.645-4.828-1.106-.971-2.97-1.522-5.604-1.61z"/>
                <path fill="#E2CAEF" d="M6.7 40.678c1.097 2.564 2.313 4.2 3.609 4.926 2.09 1.172 4.23 1.004 4.81-.148.596-1.183-.497-3.196-2.605-4.377-1.282-.718-3.22-.866-5.815-.4z"/>
                <path fill="#D0EDE7" d="M18.688 58.455c2.332 1.507 4.247 2.178 5.722 2.05 2.384-.206 4.07-1.553 3.91-2.839-.163-1.314-2.183-2.365-4.583-2.158-1.463.127-3.154 1.097-5.05 2.947z"/>
                <path fill="#D4DDFA" d="M26.956 63.952c2.332 1.507 4.247 2.177 5.722 2.05 2.384-.206 4.07-1.553 3.91-2.839-.163-1.315-2.183-2.366-4.583-2.158-1.463.126-3.154 1.097-5.05 2.947z"/>
                <path fill="#E2CAEF" d="M37.017 69.47c2.761.178 4.757-.17 5.985-1.002 1.988-1.345 2.814-3.35 2.056-4.396-.773-1.067-3.043-1-5.042.353-1.22.825-2.232 2.5-3 5.045z"/>
                <path fill="#D4DDFA" d="M25.067 14.585c-.449 2.755-1.237 4.639-2.32 5.659-1.747 1.646-3.864 2.005-4.701 1.03-.862-1.002-.285-3.223 1.477-4.883 1.072-1.009 2.916-1.625 5.544-1.806z"/>
                <path fill="#D0EDE7" d="M22.385 23.813c-.065 2.79-.584 4.766-1.516 5.928-1.503 1.875-3.55 2.527-4.513 1.68-.991-.87-.727-3.15.789-5.042.922-1.15 2.662-2.018 5.24-2.566z"/>
                <path fill="#FFEFCC" d="M25.32 39.47c.886 2.643 1.069 4.677.588 6.09-.776 2.281-2.48 3.6-3.672 3.137-1.225-.476-1.75-2.71-.968-5.009.476-1.399 1.817-2.815 4.052-4.218z"/>
                <path fill="#FFDCDC" d="M29.63 45.181c1.765 2.146 2.658 3.978 2.712 5.47.087 2.41-1.036 4.26-2.315 4.258-1.31-.003-2.594-1.896-2.682-4.324-.053-1.48.695-3.287 2.284-5.404z"/>
            </g>
            <path fill="#FFDCDC" fill-rule="nonzero" stroke-width="1.323" d="M47.076 60.74l2.997-2.48c-.16-1.407-1.433-2.515-2.997-2.515-1.563 0-2.837 1.108-2.996 2.515l2.996 2.48z"/>
            <path fill="#738CE6" stroke-width="1.617" d="M78.009 53.71c1.816-.29 3.007-.69 4.994-3.548-2.479-1.884-3.335-2.066-5.15-1.775-1.818.29-3.54 1.436-5.03 3.513 1.872 1.385 3.37 2.1 5.186 1.81zM17.193 53.71c-1.817-.29-3.007-.69-4.994-3.548 2.478-1.884 3.334-2.066 5.15-1.775 1.817.29 3.54 1.436 5.03 3.513-1.873 1.385-3.37 2.1-5.186 1.81z"/>
            <path fill="#D1EEFC" stroke-width="1.516" d="M41.725 59.806a607.644 607.644 0 0 1-.717.005c-.59.007-1.001.01-1.28.01-2.625 0-3.836-.581-4.938-2.073a3.79 3.79 0 0 1-.632-1.347 2.712 2.712 0 0 1-.089-.59c-.06-.627.062-1.103.364-1.514.779-.952 1.345-1.204 2.879-1.204 1.496 0 2.678.634 3.591 1.815.307.492.557 1.146.667 1.9.05.343.088.757.114 1.225.032.582.043 1.193.041 1.773zM52.428 59.806a607.648 607.648 0 0 0 .717.005c.59.007 1 .01 1.28.01 2.624 0 3.836-.581 4.937-2.073a3.79 3.79 0 0 0 .632-1.347c.058-.23.086-.426.09-.59.06-.627-.063-1.103-.364-1.514-.78-.952-1.345-1.204-2.879-1.204-1.496 0-2.679.634-3.592 1.815-.306.492-.556 1.146-.667 1.9-.05.343-.088.757-.113 1.225a30.716 30.716 0 0 0-.041 1.773z"/>
            <path fill="#738CE6" stroke-width="1.273" d="M66.112 36.127l.209.005c2.522.068 3.281-.033 3.935-.647.761-.716.997-1.47 1.066-3.483-.392-.008-.649-.012-.963-.016-1.428-.018-2.345.142-2.784.554-.914.859-1.355 1.872-1.463 3.587zM29.055 36.127l-.21.005c-2.521.068-3.28-.033-3.934-.647-.761-.716-.998-1.47-1.067-3.483.393-.008.649-.012.963-.016 1.428-.018 2.346.142 2.784.554.914.859 1.355 1.872 1.464 3.587z"/>
            <path fill="#FFAF00" stroke-width="1.273" d="M89.63 27.411l.187-.11c2.166-1.283 2.76-1.777 2.99-2.648.27-1.013.073-1.78-.925-3.52-.348.21-.551.334-.822.5-1.222.747-1.917 1.372-2.072 1.96-.324 1.214-.165 2.308.643 3.818z"/>
            <path fill="#D1EEFC" stroke-width="1.273" d="M79.526 7.256l.186-.11c2.166-1.283 2.759-1.777 2.99-2.648.27-1.013.073-1.78-.925-3.52-.348.21-.552.334-.822.5-1.222.747-1.917 1.373-2.073 1.96-.323 1.215-.165 2.308.644 3.818z"/>
            <path fill="#FFAF00" stroke-width="1.273" d="M4.605 27.411l-.187-.11c-2.165-1.283-2.758-1.777-2.99-2.648-.269-1.013-.073-1.78.925-3.52.348.21.552.334.823.5 1.222.747 1.916 1.372 2.072 1.96.323 1.214.165 2.308-.643 3.818z"/>
            <path fill="#D1EEFC" stroke-width="1.273" d="M12.873 7.256l-.187-.11c-2.165-1.283-2.758-1.777-2.99-2.648-.269-1.013-.073-1.78.925-3.52.348.21.552.334.823.5 1.222.747 1.916 1.373 2.072 1.96.323 1.215.165 2.308-.643 3.818z"/>
            <path fill="#50C1FA" stroke-width="1.273" d="M75.714 12.758l.08-.204c.923-2.357 1.09-3.115.739-3.946-.407-.964-1.029-1.445-2.876-2.196-.145.38-.232.608-.344.906-.507 1.348-.672 2.274-.436 2.833.488 1.157 1.28 1.92 2.837 2.607zM17.621 12.758l-.08-.204c-.923-2.357-1.09-3.115-.739-3.946.407-.964 1.029-1.445 2.876-2.196.146.38.232.608.345.906.506 1.348.671 2.274.435 2.833-.488 1.157-1.28 1.92-2.837 2.607z"/>
            <path fill="#ED427D" stroke-width="1.273" d="M69.933 63.711l.197-.059c2.425-.725 3.183-.825 3.972-.402.919.492 1.34 1.16 1.925 3.086-.373.109-.627.182-.929.267-1.374.39-2.301.475-2.83.191-1.104-.59-1.79-1.454-2.335-3.083zM23.653 63.711l-.198-.059c-2.424-.725-3.183-.825-3.972-.402-.918.492-1.34 1.16-1.924 3.086.373.109.627.182.928.267 1.375.39 2.302.475 2.831.191 1.103-.59 1.789-1.454 2.335-3.083z"/>
        </g>
        <g fill="#284B7C">
            <path d="M49.51 23.398a1.508 1.508 0 0 0-1.324-.738c-.695 0-1.328.422-1.634 1.021a1.75 1.75 0 0 0-.19.65l-.178 2.053s.69.015 1 .015c2.528 0 2.532-2.067 2.532-2.067a1.5 1.5 0 0 0-.206-.934zM53.359 27.734a1.522 1.522 0 0 0-.679-.154H42.83c-.353 0-.674.097-.96.285-.474.3-.811.81-.863 1.387-.06.695.309 1.291.888 1.544.193.083.407.133.64.133h3.253l-.284 3.243c-.02.235.003.451.073.655.203.6.761 1.022 1.454 1.022.678 0 1.295-.407 1.61-.984.116-.211.192-.44.213-.693l.284-3.243h3.251c.235 0 .455-.05.664-.131.623-.255 1.097-.85 1.16-1.546a1.505 1.505 0 0 0-.853-1.518"/>
        </g>
    </g>
</svg>
